# xmcd
#
# Track frame offsets:
#	150
#	13795
#	28221
#	40898
#	52558
#	67545
#	81834
#	93842
#	106661
#	120829
#	134034
#	146494
#	160131
#	170869
#	185869
#	197210
#	210676
#	222847
#	235961
#	248305
#
# Disc length: 3469 seconds
#
# Revision: 0
# Processed by: cddbd v1.5.2PL0 Copyright (c) Steve Scherf et al.
# Submitted via: EasyCDDAExtractor 16.0.9.1
#
DISCID=0d0d8b14
DTITLE=Henrique and Juliano - Ao Vivo Em Brasília
DYEAR=2014
DGENRE=Sertanejo
TTITLE0=Faz Tempo
TTITLE1=Até Você Voltar
TTITLE2=Gordinho Saliente
TTITLE3=Eu Chamo Você de Volta
TTITLE4=Recaídas
TTITLE5=Mudando de Assunto
TTITLE6=Pede Que Eu Dou
TTITLE7=As Vezes
TTITLE8=Não Tô Valendo Nada
TTITLE9=Calafrio
TTITLE10=Céu Particular
TTITLE11=Papel de Bobo
TTITLE12=Sereia
TTITLE13=Cuida Bem Dela
TTITLE14=Jesus Apaga A Luz
TTITLE15=Tão Distante de Tudo
TTITLE16=Pra Que Juízo
TTITLE17=É Fake
TTITLE18=Quem Ama Sempre Entende
TTITLE19=Não Fala Meu Nome
EXTD=
EXTT0=
EXTT1=
EXTT2=
EXTT3=
EXTT4=
EXTT5=
EXTT6=
EXTT7=
EXTT8=
EXTT9=
EXTT10=
EXTT11=
EXTT12=
EXTT13=
EXTT14=
EXTT15=
EXTT16=
EXTT17=
EXTT18=
EXTT19=
PLAYORDER=
